PathFileType	4	(X/Y/Z)	Demo_SinglePerson_P1_0-412.trc
DataRate	CameraRate	NumFrames	NumMarkers	Units	OrigDataRate	OrigDataStartFrame	OrigNumFrames
29	29	7	22	m	29	309	412
Frame#	Time	Hip			RHip			RKnee			RAnkle			RBigToe			RSmallToe			RHeel			LHip			LKnee			LAnkle			LBigToe			LSmallToe			LHeel			Neck			Head			Nose			RShoulder			RElbow			RWrist			LShoulder			LElbow			LWrist			
		X1	Y1	Z1	X2	Y2	Z2	X3	Y3	Z3	X4	Y4	Z4	X5	Y5	Z5	X6	Y6	Z6	X7	Y7	Z7	X8	Y8	Z8	X9	Y9	Z9	X10	Y10	Z10	X11	Y11	Z11	X12	Y12	Z12	X13	Y13	Z13	X14	Y14	Z14	X15	Y15	Z15	X16	Y16	Z16	X17	Y17	Z17	X18	Y18	Z18	X19	Y19	Z19	X20	Y20	Z20	X21	Y21	Z21	X22	Y22	Z22	
309	10.655172413793103	4.124860190865812	-0.10599264351480835	-0.49872620360478803	3.9949958814325024	-0.058342904193382665	-0.2988964717196725	3.097717478072804	-0.23247529559061186	0.03322407572904584	2.1688482387073824	-0.28208903589162165	0.31537609097091307	2.135719679067829	-0.2925930094415987	0.31148755394688715	2.0384316825234188	-0.23736212221179206	0.40200138226535487	2.0709384439433127	-0.2964059398101557	0.3229345066568719	4.201884529481173	-0.18689753992330696	-0.6763643311155833	3.3964501715703137	-0.4571671732477226	-0.3795508582274237	2.747014941897917	-0.6991974587784506	-0.16829764349145013	2.6116505753552253	-0.6493916213065133	-0.08902579994660101	2.828950159116317	-0.813390307328409	-0.23532460478970632	2.6754596788797183	-0.7342601659975363	-0.14256674400212796	5.515183410487266	0.610211013659273	-0.9355371233599619	5.998471819561684	0.9938956323463349	-0.9918603074837496	5.665022748630206	0.7794644275360614	-0.7517851373276392	5.240614636916467	0.5309298549103594	-0.5565098784338934	4.672371553354106	0.32456763488991175	-0.06972006157369182	4.772613506434962	0.3913454725206597	0.08769181629775379	5.440957992497218	0.3979815671625865	-1.265337190141581	5.0130299307400445	0.01583963512467079	-1.2424588184169585	4.926833215365467	0.18909681711918347	-0.8842737520351629
310	10.689655172413794	4.1106552479235186	-0.10648511311952262	-0.48680999035975825	3.9850066465382223	-0.05553554378808448	-0.28415304118609613	3.1130030727633073	-0.23798565851910752	0.016458526443800043	2.1936711326897065	-0.28939750732295816	0.3004442168293501	2.1936291805251336	-0.3040582923281416	0.2839506124433526	2.055635422617176	-0.2459525108628144	0.3867956295257458	2.1017206064960345	-0.3021287639763714	0.3095043706670115	4.17551475641765	-0.18446346323879126	-0.6508803227967576	3.390849476030603	-0.46071268411391897	-0.3790234482562814	2.7335740512129107	-0.6840905672961443	-0.15725597757522894	2.6553200377799633	-0.6805316285693108	-0.1189811556136536	2.8391878995011948	-0.8262062440194822	-0.24269444635900453	2.6586701542783278	-0.7177340546700002	-0.13059200189806858	5.511443416226319	0.6090030147638817	-0.9306547544796722	5.994834587279023	0.9852966963629683	-1.013644086484844	5.676185715691616	0.7766972769537734	-0.797894417654247	5.229631240032929	0.5272940685057421	-0.543303564455191	4.65913884962224	0.3244103061262897	-0.03456003463277071	4.777439228155696	0.3921521976668655	0.07335786720635408	5.429517638910385	0.39399758895523046	-1.2540206241259522	5.035742169294386	0.004806546048861334	-1.2813564253367462	4.97542974145312	0.17406901029651325	-0.9745050563697645
311	10.724137931034482	4.108667401358258	-0.10410013556438918	-0.4813261865431604	4.00650630324268	-0.04787271910180051	-0.2890526824392988	3.135312418442854	-0.2380617708834569	0.004333922092377238	2.2314759820219745	-0.2990228350694885	0.2793204588381937	2.2194293935259197	-0.3190458039595829	0.26102433239583006	2.096163277825676	-0.2645614976771	0.353977371755498	2.1425373532024707	-0.3129498292100874	0.28799547113572377	4.195870824905731	-0.17595504611387716	-0.6577360858179617	3.4066580990868958	-0.4555389621004979	-0.3842521060624733	2.7519799269748852	-0.6927468920827334	-0.16880117310368814	2.6800580476088753	-0.7064409241925939	-0.13797417315296723	2.873133744212757	-0.8510173348809927	-0.2642007350839643	2.65640658639755	-0.7177506373661734	-0.12951122766854667	5.513214140927819	0.6120135967182145	-0.926032140293388	5.998193378937901	0.986649437273269	-1.0200423310234565	5.679287031426294	0.7724614713502422	-0.8237332951210166	5.215897072309046	0.5216173867151497	-0.5312773624755676	4.655520070313626	0.3255490087620367	-0.017035124785406017	4.7720026559836795	0.3879952811333933	0.056920205186431656	5.420899790592039	0.38503241424315077	-1.2560232417697217	5.041872857840028	0.00016913823138697405	-1.29365230616497	4.994087683567117	0.18041693677202744	-0.9883575796548882
312	10.758620689655173	4.106797720323036	-0.10117612752212707	-0.4750665349686648	3.9986898949747287	-0.05100068800433223	-0.2879342952507555	3.150879413565695	-0.2403482590176342	-0.007621787742173621	2.246754498712233	-0.30466834761414896	0.26876869528492814	2.23534939508298	-0.32522992336940804	0.250212048987834	2.1206860075258636	-0.2702893646567126	0.3412839707905827	2.158401644662564	-0.3193688750340239	0.2773342434680702	4.19327570787719	-0.17276704313950325	-0.6515061033441604	3.408576885974703	-0.4489743616830269	-0.38022657116593084	2.761176434117473	-0.6937797121500475	-0.17358850123986283	2.6952022436747334	-0.704891861098603	-0.1448307165904246	2.9062928800835155	-0.8614592445148077	-0.2834367370303354	2.671300674759197	-0.7162108813318391	-0.13627972011163178	5.518853127825701	0.6150782491755163	-0.9298898004494602	5.996921460471417	0.9828205994944056	-1.03061850059564	5.68811508590523	0.7734885485632922	-0.8459186342631472	5.216885338020849	0.5282367929478569	-0.5074519398361405	4.658701192717635	0.32922467713807857	-0.0022488590847574903	4.80816956518757	0.4010974629333426	0.024049284427130543	5.430504897407045	0.3850919812747996	-1.2711448304047501	5.061732160672739	0.0031768882275148265	-1.3129898104661792	5.0621583565789345	0.1883676189641291	-1.065152813637574
313	10.793103448275861	4.104093108315588	-0.10072688703488922	-0.47193726217994036	3.9965571847512615	-0.05079640743538328	-0.2855314359487834	3.1559576544538444	-0.24274258549462338	-0.01401088350341518	2.246046512477125	-0.3085165331147857	0.2647325475803449	2.2428818208437113	-0.33482709791031895	0.23851780079886253	2.1197054048022452	-0.27374971438526996	0.3372781663143253	2.1510185067873016	-0.31802145856881586	0.2806398789836488	4.1899787978164955	-0.17195454003346636	-0.6476414306347396	3.4065737944329193	-0.44657176387201186	-0.37714563627273706	2.7357118307519857	-0.6807474079831652	-0.1572404624079678	2.6751507616642725	-0.6882936024124466	-0.13060804733907558	2.89584055129748	-0.858298017551031	-0.2773722586985986	2.655718870656515	-0.7162056328096652	-0.12880505159865735	5.510604294156047	0.6135456772278199	-0.9157820475370279	5.982285949805771	0.9694421404187767	-1.0321793732277817	5.684741618518808	0.7669520036965308	-0.8602570947462979	5.198995384268701	0.5227870295311228	-0.4837718047478891	4.633504618657179	0.318978623000356	0.004535402343326511	4.825389701587442	0.40591383168346273	-0.00406169185922098	5.411481308788717	0.379039027188692	-1.2515701584491825	5.059845672152902	-0.0091433216365794	-1.3245681347815668	5.112108718504734	0.1671104050482406	-1.163214079534725
314	10.827586206896552	4.095815487210572	-0.10013055891029735	-0.4635896903827691	3.999328274068473	-0.047256935020194915	-0.28105662393856273	3.1388983336745695	-0.2424969516470586	-0.0043614500649882875	2.226334218648562	-0.30985767668175096	0.26878096490462433	2.2413559245269985	-0.34194486607062186	0.2321401095193079	2.0995912090989433	-0.27433337949453	0.34122155068052334	2.1341428613141367	-0.31384288194377563	0.2892561839154863	4.184523854615224	-0.16373510098262528	-0.6324389752989782	3.3968035967126484	-0.4511024512965955	-0.37502049684621036	2.693408868808625	-0.6672138931610139	-0.13276808963131187	2.6772916430368525	-0.6907753591521597	-0.13233847066711524	2.8947575244516557	-0.8655324633263172	-0.2776510632503881	2.6005306582520338	-0.6862930391399381	-0.09505998726977898	5.492633101024821	0.6040221005900807	-0.9030214055032119	5.967680203135429	0.9548646581816459	-1.0384401699499892	5.682710780078027	0.7575011110220821	-0.8882831425131101	5.171059010387028	0.5088995256780338	-0.4695889713074656	4.616207757735017	0.3127141873043591	0.013820258705274278	4.819432891937607	0.3976820831326857	-0.04562957663275025	5.389199298290557	0.37283867236616924	-1.2273160434938255	5.041032513706269	-0.015046252204958761	-1.3097225749619001	5.2205844375267105	0.133594427222549	-1.3483149003462238
315	10.862068965517242	4.090035226912119	-0.09553357611961963	-0.45103852827332863	3.9960510654212698	-0.04388710325146831	-0.2711347114247153	3.142874868028715	-0.2451002671550821	-0.01042396004632322	2.2416837918907375	-0.313883635093912	0.2601791568976632	2.26499905595555	-0.3516331553783985	0.21606498443451744	2.1159354847862306	-0.27875898843496943	0.3321632261779755	2.131223956077595	-0.3179065043853452	0.28592894368536986	4.181685036023572	-0.16101024008976092	-0.6264513587217531	3.3999359017550392	-0.4525038247925776	-0.37795008413895664	2.681344515669157	-0.6450165367644889	-0.11957101438213695	2.682466112371928	-0.6935677180242628	-0.13559589767930666	2.878101254802861	-0.8532542149530389	-0.26715719731919013	2.548192958708182	-0.6425823290284669	-0.058230593115643645	5.475790648104891	0.5972937406860669	-0.884946984468528	5.959300083271662	0.9468232786448263	-1.0408082006875408	5.683977975240269	0.7464703163589553	-0.9292889891649081	5.156743330704454	0.5051191291439349	-0.44867142322677045	4.598917743578882	0.30528707823086726	0.01490872176817983	4.868450983089032	0.4030568029363162	-0.16496368719479146	5.383948071731747	0.3736258740430375	-1.2176631163979923	5.037077360840591	-0.008983833380190848	-1.298499614979851	5.242744523239379	0.1234201600028203	-1.3891869242404717
